<svg width="11" height="13" viewBox="0 0 11 13" fill="none" xmlns="http://www.w3.org/2000/svg">
<path d="M8.76563 1.50386C7.80265 0.540968 6.4966 0 5.13479 0C3.77304 0 2.46686 0.540968 1.50395 1.50395C0.540968 2.46693 0 3.77297 0 5.13479C0 6.49663 0.540968 7.80271 1.50395 8.76563L4.91979 12.1815C4.97668 12.2384 5.05394 12.2705 5.13443 12.2705C5.215 12.2705 5.29226 12.2384 5.34915 12.1815L8.76499 8.76563C9.72448 7.8009 10.2631 6.49549 10.2631 5.13479C10.2631 3.77409 9.72448 2.46865 8.76499 1.50395L8.76563 1.50386ZM5.13479 8.38789C4.26365 8.38789 3.4281 8.04181 2.81207 7.42578C2.19604 6.80975 1.84996 5.97427 1.84996 5.10306C1.84996 4.23185 2.19604 3.39637 2.81207 2.78035C3.42801 2.16432 4.26358 1.81824 5.13479 1.81824C6.006 1.81824 6.84148 2.16432 7.45751 2.78035C8.07353 3.39629 8.41961 4.23185 8.41961 5.10306C8.41865 5.97394 8.07224 6.80888 7.45645 7.42466C6.84069 8.04042 6.00573 8.38686 5.13486 8.38782L5.13479 8.38789ZM7.81189 5.10315C7.81189 5.81321 7.52979 6.4941 7.02771 6.99616C6.52564 7.49822 5.84476 7.78034 5.1347 7.78034C4.42464 7.78034 3.74375 7.49825 3.24169 6.99616C2.73963 6.4941 2.45751 5.81321 2.45751 5.10315C2.45751 4.39309 2.73961 3.71221 3.24169 3.21015C3.74375 2.70808 4.42464 2.42597 5.1347 2.42597C5.84442 2.42693 6.52486 2.7092 7.02674 3.21111C7.52865 3.71301 7.81092 4.39345 7.81189 5.10315Z" fill="#4196F0"/>
</svg>
