<svg width="24" height="20" viewBox="0 0 24 20" fill="none" xmlns="http://www.w3.org/2000/svg">
<path d="M12.142 2.40973C7.16621 -2.5686 0.700195 1.06119 0.700195 7.43552C0.700195 12.0424 5.5364 17.2553 12.142 20C18.5606 17.3951 23.3048 11.9029 23.3048 7.43552C23.3048 0.921437 17.235 -2.68586 12.142 2.40973ZM5.71795 5.88854C4.71893 5.88854 3.90953 5.07893 3.90953 4.07921C3.90953 3.07968 4.71873 2.26987 5.71795 2.26987C6.71696 2.26987 7.52636 3.07949 7.52636 4.07921C7.52636 5.07893 6.71716 5.88854 5.71795 5.88854ZM12.142 17.4868C16.5373 15.1469 19.1187 12.5309 21.3513 7.43517C21.3513 12.112 15.6638 17.4868 12.142 17.4868Z" fill="white"/>
</svg>
