<svg width="16" height="16" viewBox="0 0 16 16" fill="none" xmlns="http://www.w3.org/2000/svg">
<path d="M15.6936 14.1867L12.9921 11.4845C13.8807 10.2757 14.396 8.8001 14.396 7.20006C14.3962 3.23558 11.1614 0 7.19802 0C3.23467 0 0 3.2178 0 7.20006C0 11.1823 3.23467 14.4179 7.19802 14.4179C8.79752 14.4179 10.2905 13.8845 11.4813 12.9956L14.1828 15.6801C14.3783 15.8934 14.6627 16 14.9293 16C15.1958 16 15.4802 15.8934 15.6934 15.6978C16.1022 15.2712 16.1022 14.5957 15.6934 14.1867L15.6936 14.1867ZM2.13284 7.19996C2.13284 4.40876 4.40777 2.13326 7.19812 2.13326C10.0062 2.13326 12.2634 4.40883 12.2634 7.19996C12.2634 9.99103 9.98847 12.2667 7.19812 12.2667C4.40771 12.2667 2.13284 9.99109 2.13284 7.19996Z" fill="#C0C0C0"/>
</svg>
