<svg width="19" height="10" viewBox="0 0 19 10" fill="none" xmlns="http://www.w3.org/2000/svg">
<path d="M9.12597 9.9925C8.76045 9.95702 8.41506 9.80962 8.13663 9.56992L0.666139 3.16664H0.666387C0.290448 2.86539 0.0527271 2.42467 0.00782788 1.94506C-0.0373343 1.4654 0.114282 0.988 0.42744 0.621971C0.740597 0.255962 1.18897 0.0328816 1.66992 0.003349C2.15086 -0.0261836 2.62304 0.140575 2.97865 0.465389L9.29287 5.8794L15.6071 0.465389H15.6073C15.9629 0.140569 16.4351 -0.0261836 16.9161 0.003349C17.397 0.0328778 17.8451 0.255962 18.1585 0.621971C18.4717 0.987981 18.6233 1.46539 18.5782 1.94506C18.5332 2.42472 18.2955 2.86541 17.9196 3.16664L10.4491 9.56992H10.4494C10.0838 9.88432 9.60638 10.0367 9.12626 9.9925H9.12597Z" fill="black"/>
</svg>
