<svg width="20" height="18" viewBox="0 0 20 18" fill="none" xmlns="http://www.w3.org/2000/svg">
<path d="M19.9862 17.181L19.0536 11.7716V11.7717C19.0565 11.7473 19.0565 11.7226 19.0536 11.6984C19.0191 11.5702 19.0012 11.438 19.0003 11.3054V2.73818C19.0003 2.00731 18.7081 1.30674 18.1889 0.792557C17.6696 0.278333 16.9664 -0.00702536 16.2356 0.000131443H2.74508C2.0182 0.000131443 1.3211 0.288318 0.806574 0.801655C0.292046 1.31496 0.00208099 2.01134 0.000291792 2.73822V12.0649C-0.0104149 12.8004 0.273906 13.5094 0.789595 14.0339C1.3053 14.5584 2.00941 14.8546 2.74504 14.8562H12.358C12.6084 14.8576 12.8541 14.924 13.0709 15.0494L19.0266 17.9274C19.1179 17.9716 19.2182 17.9945 19.3197 17.994C19.4638 17.994 19.6042 17.9472 19.7194 17.8608C19.8252 17.7857 19.9067 17.6815 19.9541 17.5607C20.0014 17.4401 20.0124 17.3082 19.9859 17.1812L19.9862 17.181ZM13.6905 13.8501C13.2815 13.6281 12.8236 13.5113 12.3582 13.5103H2.74521C2.36705 13.5105 2.00482 13.3589 1.73937 13.0896C1.47393 12.8205 1.32747 12.4561 1.3328 12.078V2.75131C1.33102 2.37569 1.47898 2.01462 1.74413 1.74845C2.00912 1.48212 2.36944 1.33237 2.74521 1.33237H16.2358C16.608 1.33415 16.9646 1.4827 17.2278 1.74605C17.491 2.00926 17.6397 2.36569 17.6413 2.73807V11.3053C17.641 11.5508 17.6748 11.7951 17.7412 12.0314L18.4474 16.1283L13.6905 13.8501Z" fill="#777777"/>
<path d="M9.36704 9.98621C9.12049 9.9813 8.88183 10.072 8.70085 10.2395C8.51497 10.4112 8.4088 10.6526 8.40776 10.9056C8.38129 11.1691 8.47423 11.4306 8.66085 11.6184C8.84197 11.7872 9.07945 11.8822 9.32704 11.8849C9.57047 11.8865 9.80662 11.8016 9.99323 11.645C10.183 11.4755 10.2918 11.2334 10.293 10.9788C10.3013 10.7306 10.2075 10.4897 10.0332 10.3126C9.86906 10.1123 9.62594 9.99321 9.36704 9.98622V9.98621Z" fill="#777777"/>
<path d="M11.3257 2.64514C10.8206 2.40171 10.2675 2.27427 9.70695 2.27204C9.10502 2.24721 8.50678 2.37554 7.96815 2.64514C7.5027 2.87087 7.10507 3.21555 6.81557 3.64442C6.55444 3.99982 6.40173 4.42318 6.376 4.86348C6.37451 5.07196 6.45882 5.27195 6.60916 5.41634C6.76218 5.5814 6.97691 5.67538 7.20203 5.67627C7.40085 5.67612 7.59341 5.60593 7.74568 5.47805C7.89796 5.35002 8.00027 5.17262 8.03477 4.97677C8.15269 4.59743 8.35032 4.24769 8.61428 3.95072C8.90068 3.70224 9.27617 3.58194 9.65357 3.61763C10.0115 3.61391 10.3571 3.74745 10.6196 3.99072C10.8597 4.21334 10.991 4.52946 10.9793 4.85677C10.9761 5.0254 10.9302 5.19031 10.846 5.33651C10.7605 5.48149 10.6551 5.61369 10.533 5.72952C10.4065 5.84938 10.2066 6.02262 9.93343 6.25577C9.66026 6.48893 9.36717 6.74872 9.18071 6.92197H9.18056C8.99439 7.11796 8.84137 7.34296 8.72763 7.58816C8.60733 7.882 8.54621 8.19664 8.54769 8.51413C8.51855 8.75547 8.59364 8.99786 8.75424 9.18032C8.90161 9.32575 9.10028 9.40709 9.30726 9.40694C9.49849 9.42345 9.68855 9.36203 9.83397 9.23652C9.9794 9.11117 10.0682 8.93242 10.0799 8.74076C10.1266 8.53421 10.1665 8.38774 10.1932 8.30774C10.2179 8.22223 10.2514 8.1397 10.2932 8.06119C10.3516 7.96646 10.4185 7.87724 10.493 7.79471C10.6028 7.67352 10.7207 7.55991 10.846 7.45492C11.379 7.00199 11.7454 6.6754 11.952 6.48225C12.1615 6.28774 12.3411 6.06319 12.4849 5.81605C12.6428 5.52341 12.7254 5.19596 12.7248 4.86348C12.7325 4.41321 12.6073 3.97067 12.3651 3.59101C12.1115 3.18669 11.7521 2.85954 11.3258 2.6451L11.3257 2.64514Z" fill="#777777"/>
</svg>
