<svg width="20" height="23" viewBox="0 0 20 23" fill="none" xmlns="http://www.w3.org/2000/svg">
<path d="M0.83549 16.9439C1.3576 17.466 2.06255 17.7532 2.81962 17.7532H17.2049C17.962 17.7532 18.6669 17.466 19.1891 16.9439C19.7374 16.3955 20.0246 15.6646 19.9983 14.9075C19.9723 14.1242 19.6589 13.4193 19.0845 12.8972L18.4318 12.3228C18.1706 12.0879 18.0923 11.879 18.0923 11.5135L18.0927 8.09346C18.0927 6.13538 17.2834 4.22958 15.978 2.71529C14.4898 0.966075 12.4534 0 10.2083 0C10.1299 0 10.0777 -2.77881e-09 10.0254 0.0260419C9.9471 -2.77881e-09 9.86879 0 9.81652 0C7.57127 0 5.50886 0.965935 4.04674 2.7151C2.71548 4.22953 1.90601 6.13534 1.90601 8.09327V11.4873C1.90601 11.8268 1.8277 12.0617 1.56655 12.2966L0.91386 12.871C0.339493 13.3931 0.0262475 14.098 0 14.8813C0.000182101 15.6644 0.287375 16.3954 0.835724 16.9437L0.83549 16.9439ZM1.98409 14.0459L2.63678 13.4716C3.21114 12.9232 3.47231 12.2705 3.47231 11.4874V8.09341C3.47231 3.99442 6.78803 1.5665 9.81647 1.5665C9.89478 1.5665 9.94704 1.5665 9.99931 1.54046C10.0516 1.5665 10.1299 1.5665 10.1822 1.5665C13.2105 1.5665 16.5263 3.99442 16.5263 8.09341V11.4874C16.5263 12.2707 16.7875 12.9234 17.3618 13.4455L18.0145 14.0199C18.2757 14.2548 18.4061 14.5682 18.4061 14.9075C18.4061 15.247 18.2755 15.5602 18.0406 15.8214C17.8317 16.0563 17.5185 16.1867 17.179 16.1867H2.81983C2.48037 16.1867 2.16714 16.0561 1.95828 15.8212C1.72335 15.5863 1.59278 15.2468 1.59278 14.9073C1.59278 14.568 1.72335 14.2548 1.98432 14.0459L1.98409 14.0459Z" fill="#777777"/>
<path d="M11.9573 18.9281C11.9573 19.9985 11.0697 20.8862 9.99923 20.8862C8.92877 20.8862 8.04116 19.9985 8.04116 18.9281C8.04116 18.4843 7.7017 18.1448 7.25788 18.1448C6.81406 18.1448 6.47461 18.4843 6.47461 18.9281C6.47461 20.8601 8.06717 22.4527 9.99923 22.4527C11.9313 22.4527 13.5239 20.8601 13.5239 18.9281C13.5239 18.4843 13.1844 18.1448 12.7406 18.1448C12.2968 18.1448 11.9573 18.4843 11.9573 18.9281Z" fill="#777777"/>
</svg>
